<svg xmlns="http://www.w3.org/2000/svg" viewBox="0 0 22 22"><style type="text/css">
	.st0{fill:#A6CE39;}
</style><path class="st0" d="M22 17.4c0 0.3-0.1 0.6-0.2 1.1s-0.2 0.8-0.3 1.1c-0.2 0.5-0.9 1.1-1.9 1.7 -1 0.5-1.9 0.8-2.9 0.8 -0.3 0-0.6 0-0.8-0.1 -0.3 0-0.6-0.1-0.9-0.2s-0.6-0.2-0.7-0.2c-0.2-0.1-0.5-0.2-0.9-0.3C13 21 12.7 21 12.6 20.9c-1-0.4-1.9-0.8-2.7-1.3 -1.3-0.8-2.7-1.9-4.1-3.4 -1.4-1.4-2.6-2.8-3.4-4.1 -0.5-0.8-0.9-1.7-1.3-2.7C1 9.3 1 9 0.8 8.6 0.6 8.2 0.5 7.9 0.5 7.8 0.4 7.6 0.3 7.4 0.2 7S0.1 6.4 0.1 6.1C0 5.9 0 5.6 0 5.3c0-1 0.3-1.9 0.8-2.9 0.6-1.1 1.1-1.7 1.7-1.9 0.3-0.1 0.6-0.2 1.1-0.3C4 0.1 4.3 0 4.6 0 4.8 0 4.9 0 5 0c0.2 0.1 0.5 0.5 0.8 1.2 0.1 0.2 0.3 0.5 0.5 0.8 0.2 0.4 0.4 0.7 0.5 1C7 3.4 7.1 3.6 7.3 3.9c0 0 0.1 0.2 0.3 0.4 0.2 0.2 0.3 0.4 0.3 0.6C8 5 8 5.2 8 5.3c0 0.2-0.1 0.5-0.4 0.8s-0.6 0.6-1 0.9c-0.3 0.3-0.7 0.5-1 0.8C5.3 8.1 5.2 8.3 5.2 8.5c0 0.1 0 0.2 0.1 0.4C5.3 9 5.3 9.1 5.4 9.2c0 0.1 0.1 0.2 0.2 0.4 0.1 0.2 0.2 0.3 0.2 0.3 0.8 1.4 1.7 2.7 2.7 3.7 1 1 2.2 1.9 3.7 2.7 0 0 0.1 0.1 0.3 0.2 0.2 0.1 0.3 0.2 0.4 0.2 0.1 0 0.2 0.1 0.3 0.1s0.3 0.1 0.4 0.1c0.2 0 0.4-0.1 0.7-0.4 0.3-0.3 0.6-0.6 0.8-1 0.3-0.3 0.5-0.7 0.9-1s0.6-0.4 0.8-0.4c0.1 0 0.3 0 0.4 0.1 0.2 0.1 0.3 0.2 0.6 0.3s0.3 0.2 0.4 0.3c0.3 0.2 0.5 0.3 0.8 0.5s0.6 0.3 1 0.5 0.6 0.4 0.8 0.5c0.7 0.4 1.1 0.6 1.2 0.8C22 17.1 22 17.2 22 17.4z"/></svg>
