<svg xmlns="http://www.w3.org/2000/svg" viewBox="0 0 22 17.3"><style type="text/css">
	.st0{fill:#A6CE39;}
</style><path class="st0" d="M22 2c0 0.6-0.2 1.3-0.6 1.9S20.5 5 19.9 5.4c-3.1 2.1-5 3.5-5.7 4 -0.1 0.1-0.3 0.2-0.5 0.4 -0.3 0.2-0.5 0.3-0.7 0.5s-0.4 0.3-0.6 0.4c-0.2 0.1-0.5 0.3-0.7 0.3 -0.3 0-0.5 0-0.7 0l0 0 0 0c-0.2 0-0.4 0-0.6-0.1s-0.5-0.2-0.7-0.3 -0.5-0.3-0.6-0.4C8.9 10 8.6 9.9 8.4 9.7 8.1 9.5 7.9 9.4 7.8 9.3 7.1 8.8 6 8 4.6 7.1c-1.4-1-2.2-1.6-2.5-1.7C1.6 5 1.1 4.5 0.7 3.9 0.2 3.3 0 2.8 0 2.2S0.2 1 0.5 0.6 1.3 0 2 0h18c0.5 0 1 0.2 1.4 0.6S22 1.4 22 2zM22 5.6v9.7c0 0.5-0.2 1-0.6 1.4s-0.8 0.6-1.4 0.6H2c-0.5 0-1-0.2-1.4-0.6S0 15.9 0 15.3V5.6c0.4 0.4 0.8 0.7 1.2 1 3 2 5 3.4 6.1 4.2 0.5 0.3 0.8 0.6 1.1 0.8s0.7 0.4 1.2 0.6c0.5 0.2 0.9 0.3 1.4 0.3l0 0 0 0c0.4 0 0.9-0.1 1.4-0.3s0.9-0.4 1.2-0.6c0.3-0.2 0.7-0.5 1.1-0.8 1.4-1 3.4-2.4 6.1-4.2C21.2 6.3 21.6 6 22 5.6z"/></svg>
