<?xml version="1.0" encoding="utf-8"?>
<!-- Generator: Adobe Illustrator 21.1.0, SVG Export Plug-In . SVG Version: 6.00 Build 0)  -->
<svg version="1.1" id="Layer_1" xmlns="http://www.w3.org/2000/svg" xmlns:xlink="http://www.w3.org/1999/xlink" x="0px" y="0px"
	 viewBox="0 0 100 100" style="enable-background:new 0 0 100 100;" xml:space="preserve">
<style type="text/css">
	.st0{fill:#A6CE39;}
	.st1{fill:#FFFFFF;stroke:#FFFFFF;stroke-width:5;stroke-miterlimit:10;}
	.st2{fill:none;stroke:#FFFFFF;stroke-width:6;stroke-linecap:round;stroke-miterlimit:10;}
	.st3{fill:none;stroke:#A6CE39;stroke-width:6;stroke-miterlimit:10;}
</style>
<g>
	<circle class="st0" cx="50" cy="50" r="50"/>
	<g>
		<path class="st1" d="M59.5,37c-3.8,0-4.4,2.1-9.5,2.1S44.3,37,40.5,37s-11.8,3.8-11.8,14.4c0,7.8,2.5,11.8,5.4,15.4
			c3,3.5,7.1,6,10.5,6c3.3,0,5.4-1.1,5.4-1.1s2.1,1.1,5.4,1.1c3.3,0,7.5-2.5,10.5-6c3-3.5,5.4-7.6,5.4-15.4
			C71.3,40.8,63.3,37,59.5,37z"/>
		<path class="st2" d="M46.7,27.3c0,0,1.6,1,2.5,3.7s0.8,4.2,0.8,4.2"/>
		<path class="st3" d="M36.6,43.3c0,0-1.3,1.7-2.1,4.1c-0.7,2.4-0.7,4.1-0.7,4.1"/>
	</g>
</g>
</svg>
