<?xml version="1.0" encoding="utf-8"?>
<!-- Generator: Adobe Illustrator 21.1.0, SVG Export Plug-In . SVG Version: 6.00 Build 0)  -->
<svg version="1.1" id="Layer_1" xmlns="http://www.w3.org/2000/svg" xmlns:xlink="http://www.w3.org/1999/xlink" x="0px" y="0px"
	 viewBox="0 0 235.3 67" style="enable-background:new 0 0 235.3 67;" xml:space="preserve">
<style type="text/css">
	.st0{fill:#FFFFFF;}
	.st1{fill:#A5CD39;}
</style>
<g>
	<g>
		<path class="st0" d="M12.7,51.7c-0.3-1.5-0.8-2.6-1.6-3.4c-0.8-0.7-1.8-1.1-3.1-1.1c-0.8,0-1.5,0.1-2.2,0.4
			c-0.7,0.3-1.3,0.7-1.8,1.3c-0.5,0.6-0.9,1.3-1.2,2.3c-0.3,0.9-0.4,2.1-0.4,3.5c0,0.9,0.1,1.7,0.3,2.6c0.2,0.8,0.5,1.6,1,2.2
			c0.4,0.7,1,1.2,1.7,1.6c0.7,0.4,1.6,0.6,2.5,0.6c1.2,0,2.2-0.3,3-0.8c0.8-0.6,1.6-1.4,2.2-2.4l0.5,0.3c-0.4,0.7-0.8,1.3-1.2,1.8
			c-0.5,0.5-1,0.9-1.5,1.2c-0.5,0.3-1.1,0.5-1.7,0.6c-0.6,0.1-1.3,0.2-2,0.2c-1.1,0-2.1-0.2-3-0.6c-0.9-0.4-1.7-1-2.3-1.7
			c-0.6-0.7-1.1-1.6-1.4-2.5c-0.3-1-0.5-2-0.5-3.1c0-1.2,0.2-2.3,0.6-3.3c0.4-1,0.9-1.9,1.5-2.7C2.8,48,3.5,47.4,4.4,47
			c0.9-0.4,1.8-0.7,2.8-0.7c1.3,0,2.4,0.2,3.3,0.5c0.9,0.4,1.6,0.8,2,1.3c0.3,0.4,0.5,0.9,0.5,1.5s0.1,1.3,0.1,2H12.7z"/>
		<path class="st0" d="M33.3,59.4c0,0.7,0.1,1.3,0.3,1.7c0.2,0.4,0.6,0.6,1.3,0.6h0.5v0.5h-2.1c-0.4,0-0.7,0-1-0.1
			c-0.3-0.1-0.5-0.2-0.7-0.4c-0.2-0.2-0.3-0.5-0.3-0.8c-0.1-0.4-0.1-0.8-0.1-1.4v-4.7h-7v7.4h-2.1V49.6c0-0.7-0.1-1.3-0.3-1.7
			c-0.2-0.4-0.6-0.6-1.3-0.6H20v-0.5h2.1c0.4,0,0.7,0,1,0.1c0.3,0.1,0.5,0.2,0.7,0.4c0.2,0.2,0.3,0.5,0.3,0.9
			c0.1,0.4,0.1,0.8,0.1,1.4v4.2h7v-7h2.1V59.4z"/>
		<path class="st0" d="M43,46.8h2.1v12.6c0,0.7,0.1,1.3,0.3,1.7c0.2,0.4,0.6,0.6,1.3,0.6h0.5v0.5h-2.1c-0.4,0-0.7,0-1-0.1
			c-0.3-0.1-0.5-0.2-0.7-0.4s-0.3-0.5-0.3-0.8C43,60.5,43,60,43,59.4V46.8z"/>
		<path class="st0" d="M58.9,55.1h-1.6v7.1h-2.1V49.6c0-0.7-0.1-1.3-0.3-1.7c-0.2-0.4-0.6-0.6-1.3-0.6h-0.5v-0.5h6.1
			c0.5,0,1.1,0,1.7,0.1c0.7,0.1,1.3,0.3,1.9,0.6c0.6,0.3,1.1,0.7,1.5,1.3c0.4,0.6,0.6,1.3,0.6,2.2c0,0.7-0.1,1.2-0.3,1.7
			c-0.2,0.5-0.5,0.8-0.9,1.2c-0.4,0.3-0.8,0.5-1.2,0.7c-0.4,0.2-0.9,0.3-1.3,0.4l2.4,4.1c0.3,0.5,0.6,0.9,0.8,1.2
			c0.3,0.3,0.5,0.6,0.8,0.8c0.2,0.2,0.5,0.4,0.7,0.5c0.2,0.1,0.5,0.2,0.8,0.2v0.5c-0.1,0.1-0.3,0.1-0.6,0.2c-0.3,0-0.5,0.1-0.8,0.1
			c-0.4,0-0.8-0.1-1.1-0.2s-0.7-0.3-1-0.6c-0.3-0.3-0.7-0.6-1-1c-0.3-0.4-0.7-1-1.1-1.6L58.9,55.1z M59,54.3c0.3,0,0.7-0.1,1.1-0.2
			c0.4-0.1,0.8-0.3,1.2-0.6c0.4-0.3,0.7-0.6,0.9-1c0.3-0.4,0.4-0.9,0.4-1.5c0-0.6-0.1-1.1-0.4-1.6c-0.3-0.4-0.6-0.8-0.9-1
			c-0.4-0.3-0.8-0.5-1.2-0.6c-0.4-0.1-0.8-0.2-1.1-0.2c-0.3,0-0.6,0-0.9,0.1c-0.3,0-0.6,0.1-0.8,0.2V54c0.2,0.1,0.5,0.1,0.8,0.2
			C58.4,54.3,58.7,54.3,59,54.3z"/>
		<path class="st0" d="M72.8,54.5c0-1.1,0.2-2.2,0.5-3.2c0.3-1,0.8-1.9,1.4-2.6c0.6-0.7,1.4-1.3,2.3-1.7c0.9-0.4,1.9-0.6,3-0.6
			c1.1,0,2.1,0.2,3,0.6c0.9,0.4,1.7,1,2.3,1.7c0.6,0.7,1.1,1.6,1.4,2.6c0.3,1,0.5,2.1,0.5,3.2c0,1.1-0.2,2.2-0.5,3.2
			c-0.3,1-0.8,1.8-1.4,2.6C84.7,61,83.9,61.6,83,62c-0.9,0.4-1.9,0.6-3,0.6c-1.1,0-2.1-0.2-3-0.6c-0.9-0.4-1.7-1-2.3-1.7
			c-0.6-0.7-1.1-1.6-1.4-2.6C73,56.7,72.8,55.7,72.8,54.5z M84.9,54.5c0-1.1-0.1-2.1-0.3-3c-0.2-0.9-0.5-1.7-1-2.3
			c-0.4-0.6-0.9-1.1-1.5-1.4c-0.6-0.3-1.3-0.5-2-0.5c-0.8,0-1.4,0.2-2,0.5c-0.6,0.3-1.1,0.8-1.5,1.4c-0.4,0.6-0.7,1.4-1,2.3
			c-0.2,0.9-0.3,1.9-0.3,3c0,1.1,0.1,2.1,0.3,3c0.2,0.9,0.5,1.7,1,2.3c0.4,0.6,0.9,1.1,1.5,1.4c0.6,0.3,1.3,0.5,2,0.5
			c0.8,0,1.4-0.2,2-0.5c0.6-0.3,1.1-0.8,1.5-1.4c0.4-0.6,0.7-1.4,1-2.3C84.8,56.6,84.9,55.6,84.9,54.5z"/>
		<path class="st0" d="M97.9,62.2h-2.1V49.6c0-0.7-0.1-1.3-0.3-1.7c-0.2-0.4-0.6-0.6-1.3-0.6h-0.5v-0.5h6.1c0.5,0,1.1,0,1.7,0.1
			c0.7,0.1,1.3,0.3,1.9,0.6c0.6,0.3,1.1,0.8,1.5,1.4c0.4,0.6,0.6,1.5,0.6,2.5c0,0.7-0.1,1.2-0.3,1.7c-0.2,0.5-0.4,0.9-0.8,1.2
			c-0.3,0.3-0.7,0.6-1,0.8c-0.4,0.2-0.8,0.4-1.1,0.5c-0.4,0.1-0.7,0.2-1.1,0.2c-0.3,0-0.6,0.1-0.8,0.1h-2.6V62.2z M99.6,55.1
			c0.3,0,0.7-0.1,1.1-0.2c0.4-0.1,0.8-0.3,1.2-0.6c0.4-0.3,0.7-0.7,0.9-1.2c0.3-0.5,0.4-1.1,0.4-1.8c0-0.7-0.1-1.3-0.4-1.8
			c-0.3-0.5-0.6-0.9-0.9-1.2c-0.4-0.3-0.8-0.5-1.2-0.6c-0.4-0.1-0.8-0.2-1.1-0.2c-0.3,0-0.6,0-0.9,0.1c-0.3,0-0.6,0.1-0.8,0.2v7
			c0.2,0.1,0.5,0.1,0.8,0.2C99,55.1,99.3,55.1,99.6,55.1z"/>
		<path class="st0" d="M117.5,55.1h-1.6v7.1h-2.1V49.6c0-0.7-0.1-1.3-0.3-1.7c-0.2-0.4-0.6-0.6-1.3-0.6h-0.5v-0.5h6.1
			c0.5,0,1.1,0,1.7,0.1c0.7,0.1,1.3,0.3,1.9,0.6c0.6,0.3,1.1,0.7,1.5,1.3c0.4,0.6,0.6,1.3,0.6,2.2c0,0.7-0.1,1.2-0.3,1.7
			c-0.2,0.5-0.5,0.8-0.9,1.2c-0.4,0.3-0.8,0.5-1.2,0.7c-0.4,0.2-0.9,0.3-1.3,0.4l2.4,4.1c0.3,0.5,0.6,0.9,0.8,1.2
			c0.3,0.3,0.5,0.6,0.8,0.8c0.2,0.2,0.5,0.4,0.7,0.5c0.2,0.1,0.5,0.2,0.8,0.2v0.5c-0.1,0.1-0.3,0.1-0.6,0.2c-0.3,0-0.5,0.1-0.8,0.1
			c-0.4,0-0.8-0.1-1.1-0.2c-0.3-0.1-0.7-0.3-1-0.6c-0.3-0.3-0.7-0.6-1-1c-0.3-0.4-0.7-1-1.1-1.6L117.5,55.1z M117.6,54.3
			c0.3,0,0.7-0.1,1.1-0.2c0.4-0.1,0.8-0.3,1.2-0.6c0.4-0.3,0.7-0.6,0.9-1c0.3-0.4,0.4-0.9,0.4-1.5c0-0.6-0.1-1.1-0.4-1.6
			c-0.3-0.4-0.6-0.8-0.9-1c-0.4-0.3-0.8-0.5-1.2-0.6c-0.4-0.1-0.8-0.2-1.1-0.2c-0.3,0-0.6,0-0.9,0.1c-0.3,0-0.6,0.1-0.8,0.2V54
			c0.2,0.1,0.5,0.1,0.8,0.2C117,54.3,117.3,54.3,117.6,54.3z"/>
		<path class="st0" d="M145.8,62.2c-0.3,0.1-0.6,0.1-0.9,0.1c-0.3,0-0.6,0-0.9-0.1c-0.3-0.1-0.7-0.2-1.1-0.4
			c-0.4-0.2-0.7-0.5-1.1-0.9c-0.3-0.4-0.6-0.9-0.9-1.6l-0.6-1.5h-6.5l-1.9,4.4h-1l6.5-15.4h0.7l5.1,12.5c0.2,0.4,0.4,0.8,0.5,1.1
			c0.2,0.3,0.3,0.5,0.5,0.7c0.2,0.2,0.4,0.3,0.7,0.4c0.2,0.1,0.5,0.2,0.8,0.2V62.2z M134.1,56.8h5.7l-2.8-6.8L134.1,56.8z"/>
		<path class="st0" d="M162.2,46.8v0.9h-5.2v14.4h-2.1V47.8h-2.1c-0.9,0-1.6,0.2-2.2,0.6c-0.5,0.4-0.8,1.1-0.8,2h-0.5v-1.7
			c0-0.2,0-0.5,0.1-0.7c0.1-0.2,0.2-0.4,0.3-0.6c0.1-0.2,0.3-0.3,0.6-0.4c0.3-0.1,0.6-0.2,1-0.2H162.2z"/>
		<path class="st0" d="M169.7,46.8h2.1v12.6c0,0.7,0.1,1.3,0.3,1.7c0.2,0.4,0.6,0.6,1.3,0.6h0.5v0.5h-2.1c-0.4,0-0.7,0-1-0.1
			c-0.3-0.1-0.5-0.2-0.7-0.4c-0.2-0.2-0.3-0.5-0.3-0.8c-0.1-0.4-0.1-0.8-0.1-1.4V46.8z"/>
		<path class="st0" d="M180.3,54.5c0-1.1,0.2-2.2,0.5-3.2c0.3-1,0.8-1.9,1.4-2.6c0.6-0.7,1.4-1.3,2.3-1.7c0.9-0.4,1.9-0.6,3-0.6
			c1.1,0,2.1,0.2,3,0.6c0.9,0.4,1.7,1,2.3,1.7c0.6,0.7,1.1,1.6,1.4,2.6c0.3,1,0.5,2.1,0.5,3.2c0,1-0.1,1.9-0.4,2.7
			c-0.2,0.9-0.6,1.6-1,2.3c-0.5,0.7-1,1.3-1.7,1.8c-0.7,0.5-1.4,0.8-2.2,1.1c0.2,0.6,0.5,1.1,0.9,1.6c0.4,0.5,0.9,0.9,1.4,1.3
			c0.5,0.4,1.1,0.7,1.6,0.9s1.1,0.3,1.6,0.3V67c-0.8,0-1.7-0.1-2.5-0.2c-0.8-0.1-1.7-0.4-2.5-0.7c-0.8-0.3-1.6-0.8-2.4-1.4
			c-0.8-0.6-1.5-1.3-2.2-2.2c-0.8-0.2-1.5-0.6-2.1-1.1c-0.6-0.5-1.2-1.1-1.6-1.8c-0.4-0.7-0.8-1.5-1-2.3S180.3,55.5,180.3,54.5z
			 M192.5,54.5c0-1.1-0.1-2.1-0.3-3c-0.2-0.9-0.5-1.7-1-2.3c-0.4-0.6-0.9-1.1-1.5-1.4c-0.6-0.3-1.3-0.5-2-0.5c-0.8,0-1.4,0.2-2,0.5
			c-0.6,0.3-1.1,0.8-1.5,1.4c-0.4,0.6-0.7,1.4-1,2.3c-0.2,0.9-0.3,1.9-0.3,3c0,1.1,0.1,2.1,0.3,3c0.2,0.9,0.5,1.7,1,2.3
			c0.4,0.6,0.9,1.1,1.5,1.4c0.6,0.3,1.3,0.5,2,0.5c0.8,0,1.4-0.2,2-0.5c0.6-0.3,1.1-0.8,1.5-1.4c0.4-0.6,0.7-1.4,1-2.3
			C192.3,56.6,192.5,55.6,192.5,54.5z"/>
		<path class="st0" d="M203.3,49.6c0-0.7-0.1-1.3-0.3-1.7c-0.2-0.4-0.6-0.6-1.3-0.6h-0.5v-0.5h2.1c0.4,0,0.7,0,1,0.1
			c0.3,0.1,0.5,0.2,0.7,0.4c0.2,0.2,0.3,0.5,0.3,0.9c0.1,0.4,0.1,0.8,0.1,1.4v6.6c0,0.8,0.1,1.6,0.2,2.2c0.1,0.6,0.4,1.2,0.7,1.6
			c0.3,0.5,0.7,0.8,1.3,1c0.5,0.2,1.2,0.4,1.9,0.4c0.9,0,1.6-0.1,2.2-0.3c0.6-0.2,1.1-0.6,1.5-1.1c0.4-0.5,0.6-1.1,0.8-1.9
			c0.2-0.7,0.2-1.6,0.2-2.7v-8.7h0.9v8.7c0,1.1-0.1,2.1-0.3,3c-0.2,0.9-0.5,1.6-0.9,2.2s-1,1-1.8,1.3c-0.8,0.3-1.8,0.4-2.9,0.4
			c-1.1,0-2.1-0.1-2.8-0.4c-0.8-0.3-1.4-0.7-1.8-1.3c-0.5-0.6-0.8-1.3-1-2.2c-0.2-0.9-0.3-1.9-0.3-3V49.6z"/>
		<path class="st0" d="M232.5,46.8c0.4,0,0.7,0.1,1,0.2c0.3,0.1,0.5,0.2,0.6,0.4s0.2,0.4,0.3,0.6c0.1,0.2,0.1,0.5,0.1,0.7v1.7H234
			c0-0.9-0.3-1.6-0.8-2c-0.5-0.4-1.2-0.6-2.2-0.6h-4.3v6.1h6.3v0.9h-6.3v6.5h4.1c1.1,0,1.9-0.2,2.5-0.6c0.6-0.4,1.1-1,1.5-2l0.5,0.1
			l-0.8,2.2c-0.1,0.4-0.3,0.6-0.6,0.8c-0.3,0.2-0.7,0.3-1.1,0.3h-8V49.6c0-0.7-0.1-1.3-0.3-1.7c-0.2-0.4-0.6-0.6-1.3-0.6h-0.5v-0.5
			H232.5z"/>
	</g>
	<g>
		<path class="st1" d="M60.3,34.4h-4.7V6.3c0-1.6-0.2-2.8-0.7-3.8c-0.4-1-1.4-1.4-3-1.4h-1V0h13.6c1.1,0,2.4,0.1,3.9,0.3
			c1.5,0.2,2.9,0.7,4.3,1.4c1.4,0.7,2.5,1.8,3.4,3.2c0.9,1.4,1.4,3.3,1.4,5.6c0,1.5-0.2,2.8-0.7,3.8c-0.4,1.1-1,2-1.7,2.7
			c-0.7,0.7-1.5,1.3-2.3,1.8c-0.9,0.5-1.7,0.8-2.6,1c-0.9,0.2-1.7,0.4-2.4,0.5c-0.7,0.1-1.4,0.1-1.9,0.1h-5.7V34.4z M64.2,18.5
			c0.7,0,1.6-0.1,2.5-0.4c0.9-0.3,1.8-0.7,2.6-1.4c0.8-0.7,1.5-1.5,2.1-2.6c0.6-1.1,0.9-2.4,0.9-3.9S72,7.3,71.5,6.2
			c-0.6-1.1-1.3-1.9-2.1-2.6c-0.8-0.7-1.7-1.1-2.6-1.4C65.8,2,65,1.8,64.2,1.8c-0.7,0-1.3,0.1-2.1,0.2c-0.7,0.1-1.3,0.2-1.9,0.4V18
			c0.5,0.1,1.1,0.3,1.9,0.4C62.9,18.5,63.6,18.5,64.2,18.5z"/>
		<path class="st1" d="M96.8,18.5h-3.7v15.9h-4.7V6.3c0-1.6-0.2-2.8-0.7-3.8c-0.4-1-1.4-1.4-3-1.4h-1V0h13.6c1.1,0,2.4,0.1,3.9,0.3
			c1.5,0.2,2.9,0.6,4.3,1.3c1.4,0.7,2.5,1.6,3.4,2.8c0.9,1.2,1.4,2.9,1.4,5c0,1.5-0.3,2.8-0.8,3.8c-0.5,1-1.2,1.9-2,2.6
			c-0.8,0.7-1.7,1.2-2.7,1.6c-1,0.4-1.9,0.7-2.8,0.9l5.5,9.1c0.7,1.1,1.3,2,1.9,2.8c0.6,0.7,1.1,1.3,1.7,1.8c0.6,0.5,1.1,0.8,1.7,1
			c0.6,0.2,1.2,0.3,1.8,0.4v1c-0.3,0.1-0.7,0.3-1.3,0.4c-0.6,0.1-1.2,0.2-1.9,0.2c-0.9,0-1.7-0.1-2.5-0.4c-0.8-0.2-1.5-0.7-2.3-1.3
			c-0.7-0.6-1.5-1.4-2.2-2.3c-0.7-1-1.5-2.2-2.4-3.6L96.8,18.5z M97.1,16.7c0.7,0,1.6-0.1,2.5-0.4c0.9-0.3,1.8-0.7,2.6-1.3
			c0.8-0.6,1.5-1.3,2.1-2.2c0.6-0.9,0.9-2,0.9-3.4c0-1.4-0.3-2.5-0.9-3.5c-0.6-1-1.3-1.8-2.1-2.3c-0.8-0.6-1.7-1-2.6-1.3
			c-0.9-0.3-1.7-0.4-2.5-0.4c-0.7,0-1.3,0.1-2.1,0.2c-0.7,0.1-1.3,0.2-1.9,0.4v13.8c0.5,0.1,1.1,0.3,1.9,0.4
			C95.7,16.6,96.4,16.7,97.1,16.7z"/>
		<path class="st1" d="M152.5,34.4c-0.6,0.2-1.3,0.3-2.1,0.3c-0.6,0-1.3-0.1-2.1-0.2c-0.8-0.1-1.6-0.4-2.4-0.9
			c-0.8-0.5-1.6-1.2-2.4-2.1c-0.8-0.9-1.5-2.1-2-3.6l-1.3-3.4h-14.6l-4.2,9.9h-2.3L133.7,0h1.6l11.5,27.9c0.4,1,0.8,1.8,1.2,2.5
			c0.4,0.7,0.8,1.2,1.2,1.6c0.5,0.4,0.9,0.7,1.5,0.9c0.5,0.2,1.1,0.3,1.9,0.4V34.4z M126.4,22.4h12.8l-6.3-15.1L126.4,22.4z"/>
		<path class="st1" d="M160.8,6.3c0-1.6-0.3-2.8-1-3.8c-0.7-1-1.9-1.4-3.7-1.4h-0.5V0h3.4c1.7,0,3.1,0.3,4.2,0.8
			c1.1,0.6,2,1.3,2.8,2.3l18.3,22.7V0h2.1v34.9h-1L162.9,7v27.4h-2.1V6.3z"/>
		<path class="st1" d="M229,34.4c-0.6,0.2-1.3,0.3-2.1,0.3c-0.6,0-1.3-0.1-2.1-0.2c-0.8-0.1-1.6-0.4-2.4-0.9
			c-0.8-0.5-1.6-1.2-2.4-2.1c-0.8-0.9-1.5-2.1-2-3.6l-1.3-3.4h-14.6l-4.2,9.9h-2.3L210.3,0h1.6l11.5,27.9c0.4,1,0.8,1.8,1.2,2.5
			c0.4,0.7,0.8,1.2,1.2,1.6c0.5,0.4,0.9,0.7,1.5,0.9c0.5,0.2,1.1,0.3,1.9,0.4V34.4z M203,22.4h12.8l-6.3-15.1L203,22.4z"/>
	</g>
</g>
</svg>
