<svg xmlns="http://www.w3.org/2000/svg" viewBox="0 0 429.7 510.9"><style type="text/css">
	.st0{opacity:0.6;}
	.st1{opacity:0.7;}
	.st2{fill:#FFFFFF;}
	.st3{fill:#A5CD39;}
	.st4{opacity:0.7;fill:#FFFFFF;}
</style><g class="st0"><g class="st1"><path class="st2" d="M236.5 274.4c1 13 12.3 22.7 25.2 21.8 13-1 22.7-12.3 21.8-25.2 -1-13-12.3-22.7-25.2-21.8C245.3 250.2 235.5 261.5 236.5 274.4z"/><path class="st2" d="M231 338.2c0.8 10.4 9.8 18.2 20.2 17.4 10.4-0.8 18.2-9.8 17.4-20.2 -0.8-10.4-9.8-18.2-20.2-17.4C238.1 318.7 230.3 327.8 231 338.2z"/><path class="st2" d="M208.8 391.4c0.6 8.3 7.9 14.5 16.1 13.9 8.3-0.6 14.5-7.9 13.9-16.1 -0.6-8.3-7.9-14.5-16.1-13.9C214.4 375.8 208.2 383.1 208.8 391.4z"/><path class="st2" d="M186.7 434.7c0.5 6.6 6.3 11.6 12.9 11.1 6.6-0.5 11.6-6.3 11.1-12.9 -0.5-6.6-6.3-11.6-12.9-11.1C191.2 422.3 186.2 428.1 186.7 434.7z"/><path class="st2" d="M180.7 476c0.3 4.3 4.1 7.6 8.4 7.3 4.3-0.3 7.6-4.1 7.3-8.4 -0.3-4.3-4.1-7.6-8.4-7.3C183.6 467.9 180.3 471.7 180.7 476z"/><path class="st2" d="M195.2 506c0.2 2.9 2.8 5.1 5.7 4.9 2.9-0.2 5.1-2.8 4.9-5.7 -0.2-2.9-2.8-5.1-5.7-4.9C197.2 500.5 195 503.1 195.2 506z"/></g><path class="st3" d="M212.6 0C212.6 0 212.6 0 212.6 0 212.6 0 212.6 0 212.6 0z"/><path class="st3" d="M195.3 249.2c-86.3-39.7-145.6-120.6-156-157.4C61.8 90 117.1 81 168.5 137.2c0 0 13.4-98.6 46-123.2 0 0 38.6 50.1 33.3 130.1 0 0 53-57.6 131.5-53.6 0 0-21.7 60.3-59.7 90.9 0 0 16.6-5.3 41.2 8 0 0 37.2-57.2 27.9-105.1 0 0-54.5-20-118.4 10.6 0 0-13.3-64.2-57.8-94.8 0.2 1.3-51 41.6-58.6 92.8 0 0-69.2-28.6-125-8.6 0 0 4 49.8 44.1 102.3 -12.5 5-40.3 20.7-66.7 60.6 0 0 40.5-32.8 88.6-39 20.7 21.9 47.7 43.1 82.9 60.2 11.1 16 23.7 50.2-5.8 107.2 -43.3 83.7-9.4 124.7-9.4 124.7s-23.1-48.5 22-113.1c33.3-47.7 31.2-86.4 27.5-104.2C341.2 331.8 389.5 299 389.5 299S341.2 316.2 195.3 249.2z"/><path class="st4" d="M162.7 176.4c0-23.2 18.9-42.1 42.1-42.1s42.1 18.9 42.1 42.1 -18.9 42.1-42.1 42.1S162.7 199.6 162.7 176.4zM185.6 176.4c0 10.6 8.6 19.2 19.2 19.2 10.6 0 19.2-8.6 19.2-19.2 0-10.6-8.6-19.2-19.2-19.2C194.2 157.2 185.6 165.8 185.6 176.4z"/><path class="st4" d="M0 256.9c0 0 84.9 58 213.2-25.7 130.4-85 185.4 0.7 216.6 45.3l-24.3 14.5c0 0-49.9-115.8-155.7-53.1C173.3 283.3 96.1 323.9 0 256.9z"/></g></svg>
