<svg xmlns="http://www.w3.org/2000/svg" viewBox="0 0 197.1 221.4"><style type="text/css">
	.st0{fill:#888A8C;}
	.st1{fill:#A4CC39;}
</style><path class="st0" d="M106.8 80.5c0.3 3.8 3.6 6.7 7.4 6.4 3.8-0.3 6.7-3.6 6.4-7.4 -0.3-3.8-3.6-6.7-7.4-6.4C109.4 73.3 106.5 76.7 106.8 80.5z"/><path class="st0" d="M105.2 99.2c0.2 3 2.9 5.3 5.9 5.1 3-0.2 5.3-2.9 5.1-5.9 -0.2-3-2.9-5.3-5.9-5.1C107.2 93.5 105 96.1 105.2 99.2z"/><path class="st0" d="M98.7 114.8c0.2 2.4 2.3 4.3 4.7 4.1 2.4-0.2 4.3-2.3 4.1-4.7 -0.2-2.4-2.3-4.3-4.7-4.1C100.3 110.2 98.5 112.3 98.7 114.8z"/><path class="st0" d="M92.2 127.5c0.1 1.9 1.8 3.4 3.8 3.3 1.9-0.1 3.4-1.8 3.3-3.8 -0.1-1.9-1.8-3.4-3.8-3.3C93.5 123.8 92 125.5 92.2 127.5z"/><path class="st0" d="M90.4 139.6c0.1 1.3 1.2 2.2 2.5 2.1 1.3-0.1 2.2-1.2 2.1-2.5 -0.1-1.3-1.2-2.2-2.5-2.1C91.3 137.2 90.3 138.3 90.4 139.6z"/><path class="st0" d="M94.7 148.4c0.1 0.9 0.8 1.5 1.7 1.4 0.9-0.1 1.5-0.8 1.4-1.7 -0.1-0.9-0.8-1.5-1.7-1.4C95.3 146.7 94.6 147.5 94.7 148.4z"/><path class="st1" d="M99.8 0C99.8 0 99.8 0 99.8 0 99.8 0 99.8 0 99.8 0z"/><path class="st1" d="M94.7 73.1C69.4 61.4 52 37.7 49 26.9c6.6-0.5 22.8-3.2 37.9 13.3 0 0 3.9-28.9 13.5-36.1 0 0 11.3 14.7 9.8 38.1 0 0 15.5-16.9 38.6-15.7 0 0-6.4 17.7-17.5 26.6 0 0 4.9-1.6 12.1 2.3 0 0 10.9-16.8 8.2-30.8 0 0-16-5.8-34.7 3.1 0 0-3.9-18.8-16.9-27.8 0 0.4-14.9 12.2-17.2 27.2 0 0-20.3-8.4-36.7-2.5 0 0 1.2 14.6 12.9 30 -3.7 1.5-11.8 6.1-19.6 17.8 0 0 11.9-9.6 26-11.4 6.1 6.4 14 12.6 24.3 17.7 3.2 4.7 6.9 14.7-1.7 31.4 -12.7 24.5-2.8 36.6-2.8 36.6s-6.8-14.2 6.4-33.2c9.7-14 9.1-25.3 8.1-30.6 37.9 14.3 52 4.7 52 4.7S137.5 92.7 94.7 73.1z"/><path class="st0" d="M85.1 51.7c0-6.8 5.5-12.4 12.3-12.4s12.4 5.5 12.4 12.4 -5.5 12.3-12.4 12.3S85.1 58.5 85.1 51.7zM91.9 51.7c0 3.1 2.5 5.6 5.6 5.6 3.1 0 5.6-2.5 5.6-5.6 0-3.1-2.5-5.6-5.6-5.6C94.4 46.1 91.9 48.6 91.9 51.7z"/><path class="st0" d="M37.4 75.3c0 0 24.9 17 62.5-7.5 38.2-24.9 54.4 0.2 63.5 13.3l-7.1 4.3c0 0-14.6-34-45.6-15.6C88.2 83.1 65.6 95 37.4 75.3z"/><path class="st0" d="M10.6 208.6c-0.2-1.3-0.7-2.2-1.4-2.8 -0.7-0.6-1.5-0.9-2.6-0.9 -0.6 0-1.2 0.1-1.8 0.3 -0.6 0.2-1.1 0.6-1.5 1.1 -0.4 0.5-0.8 1.1-1 1.9 -0.2 0.8-0.4 1.8-0.4 3 0 0.7 0.1 1.4 0.3 2.2 0.2 0.7 0.5 1.3 0.8 1.9 0.4 0.5 0.9 1 1.5 1.3 0.6 0.3 1.3 0.5 2.1 0.5 1 0 1.8-0.2 2.5-0.7 0.7-0.5 1.3-1.1 1.9-2l0.4 0.3c-0.3 0.6-0.7 1.1-1 1.5 -0.4 0.4-0.8 0.7-1.2 1 -0.4 0.3-0.9 0.4-1.4 0.5 -0.5 0.1-1.1 0.2-1.6 0.2 -0.9 0-1.8-0.2-2.5-0.5 -0.7-0.3-1.4-0.8-1.9-1.4 -0.5-0.6-0.9-1.3-1.2-2.1 -0.3-0.8-0.4-1.7-0.4-2.6 0-1 0.2-1.9 0.5-2.7 0.3-0.9 0.8-1.6 1.3-2.2 0.5-0.6 1.2-1.1 1.9-1.5 0.7-0.4 1.5-0.5 2.3-0.5 1.1 0 2 0.2 2.8 0.5s1.3 0.7 1.7 1.1c0.2 0.3 0.4 0.7 0.4 1.3 0 0.5 0.1 1.1 0.1 1.7H10.6z"/><path class="st0" d="M27.9 215c0 0.6 0.1 1.1 0.2 1.4 0.2 0.4 0.5 0.5 1.1 0.5h0.4v0.4h-1.8c-0.3 0-0.6 0-0.8-0.1 -0.2-0.1-0.4-0.2-0.5-0.4s-0.2-0.4-0.3-0.7c-0.1-0.3-0.1-0.7-0.1-1.2v-3.9h-5.8v6.3h-1.8v-10.6c0-0.6-0.1-1.1-0.2-1.4 -0.2-0.4-0.5-0.5-1.1-0.5h-0.4v-0.4h1.8c0.3 0 0.6 0 0.8 0.1 0.2 0.1 0.4 0.2 0.5 0.4 0.1 0.2 0.2 0.4 0.3 0.7 0.1 0.3 0.1 0.7 0.1 1.2v3.5h5.8v-5.9h1.8V215z"/><path class="st0" d="M36 204.5h1.8V215c0 0.6 0.1 1.1 0.2 1.4 0.2 0.4 0.5 0.5 1.1 0.5h0.4v0.4h-1.8c-0.3 0-0.6 0-0.8-0.1 -0.2-0.1-0.4-0.2-0.5-0.4s-0.2-0.4-0.3-0.7c-0.1-0.3-0.1-0.7-0.1-1.2V204.5z"/><path class="st0" d="M49.3 211.4H48v6h-1.8v-10.6c0-0.6-0.1-1.1-0.2-1.4 -0.2-0.4-0.5-0.5-1.1-0.5h-0.4v-0.4h5.1c0.4 0 0.9 0 1.5 0.1 0.6 0.1 1.1 0.2 1.6 0.5 0.5 0.2 0.9 0.6 1.3 1.1 0.4 0.5 0.5 1.1 0.5 1.9 0 0.6-0.1 1-0.3 1.4 -0.2 0.4-0.4 0.7-0.8 1 -0.3 0.3-0.6 0.5-1 0.6 -0.4 0.1-0.7 0.3-1.1 0.3l2 3.4c0.2 0.4 0.5 0.8 0.7 1 0.2 0.3 0.4 0.5 0.6 0.7 0.2 0.2 0.4 0.3 0.6 0.4 0.2 0.1 0.4 0.1 0.7 0.2v0.4c-0.1 0.1-0.3 0.1-0.5 0.1 -0.2 0-0.4 0.1-0.7 0.1 -0.3 0-0.7 0-0.9-0.1s-0.6-0.2-0.8-0.5c-0.3-0.2-0.5-0.5-0.8-0.9 -0.3-0.4-0.6-0.8-0.9-1.3L49.3 211.4zM49.4 210.7c0.3 0 0.6-0.1 0.9-0.2 0.3-0.1 0.7-0.3 1-0.5 0.3-0.2 0.6-0.5 0.8-0.8 0.2-0.3 0.3-0.8 0.3-1.3 0-0.5-0.1-0.9-0.3-1.3 -0.2-0.4-0.5-0.7-0.8-0.9 -0.3-0.2-0.6-0.4-1-0.5 -0.3-0.1-0.7-0.2-0.9-0.2 -0.2 0-0.5 0-0.8 0.1 -0.3 0-0.5 0.1-0.7 0.1v5.2c0.2 0.1 0.4 0.1 0.7 0.1C48.9 210.7 49.2 210.7 49.4 210.7z"/><path class="st0" d="M61 210.9c0-1 0.1-1.8 0.4-2.7 0.3-0.8 0.7-1.6 1.2-2.2 0.5-0.6 1.2-1.1 1.9-1.5 0.7-0.4 1.6-0.5 2.5-0.5 0.9 0 1.8 0.2 2.5 0.5 0.7 0.4 1.4 0.8 1.9 1.5 0.5 0.6 0.9 1.3 1.2 2.2 0.3 0.8 0.4 1.7 0.4 2.7 0 1-0.1 1.9-0.4 2.7 -0.3 0.8-0.7 1.6-1.2 2.2 -0.5 0.6-1.2 1.1-1.9 1.5 -0.7 0.4-1.6 0.5-2.5 0.5 -0.9 0-1.8-0.2-2.5-0.5 -0.7-0.4-1.4-0.8-1.9-1.5s-0.9-1.3-1.2-2.2S61 211.9 61 210.9zM71.1 210.9c0-0.9-0.1-1.8-0.3-2.5 -0.2-0.7-0.5-1.4-0.8-1.9 -0.4-0.5-0.8-0.9-1.3-1.2 -0.5-0.3-1.1-0.4-1.7-0.4 -0.6 0-1.2 0.1-1.7 0.4 -0.5 0.3-0.9 0.7-1.3 1.2 -0.4 0.5-0.6 1.2-0.8 1.9 -0.2 0.8-0.3 1.6-0.3 2.5 0 0.9 0.1 1.8 0.3 2.5 0.2 0.7 0.5 1.4 0.8 1.9 0.4 0.5 0.8 0.9 1.3 1.2s1.1 0.4 1.7 0.4c0.6 0 1.2-0.1 1.7-0.4 0.5-0.3 0.9-0.7 1.3-1.2 0.4-0.5 0.6-1.2 0.8-1.9C71 212.7 71.1 211.9 71.1 210.9z"/><path class="st0" d="M82 217.4h-1.8v-10.6c0-0.6-0.1-1.1-0.2-1.4 -0.2-0.4-0.5-0.5-1.1-0.5h-0.4v-0.4h5.1c0.4 0 0.9 0 1.5 0.1 0.6 0.1 1.1 0.3 1.6 0.5 0.5 0.3 0.9 0.7 1.3 1.2 0.4 0.5 0.5 1.2 0.5 2.1 0 0.6-0.1 1-0.2 1.4 -0.2 0.4-0.4 0.7-0.6 1 -0.3 0.3-0.5 0.5-0.9 0.7 -0.3 0.2-0.6 0.3-1 0.4 -0.3 0.1-0.6 0.1-0.9 0.2 -0.3 0-0.5 0-0.7 0H82V217.4zM83.4 211.4c0.3 0 0.6-0.1 0.9-0.2s0.7-0.3 1-0.5c0.3-0.2 0.6-0.6 0.8-1 0.2-0.4 0.3-0.9 0.3-1.5 0-0.6-0.1-1.1-0.3-1.5 -0.2-0.4-0.5-0.7-0.8-1 -0.3-0.2-0.6-0.4-1-0.5s-0.7-0.2-0.9-0.2c-0.2 0-0.5 0-0.8 0.1 -0.3 0-0.5 0.1-0.7 0.1v5.9c0.2 0.1 0.4 0.1 0.7 0.1C82.9 211.4 83.2 211.4 83.4 211.4z"/><path class="st0" d="M98.4 211.4h-1.4v6h-1.8v-10.6c0-0.6-0.1-1.1-0.2-1.4 -0.2-0.4-0.5-0.5-1.1-0.5h-0.4v-0.4h5.1c0.4 0 0.9 0 1.5 0.1 0.6 0.1 1.1 0.2 1.6 0.5 0.5 0.2 0.9 0.6 1.3 1.1 0.4 0.5 0.5 1.1 0.5 1.9 0 0.6-0.1 1-0.3 1.4 -0.2 0.4-0.4 0.7-0.8 1 -0.3 0.3-0.6 0.5-1 0.6 -0.4 0.1-0.7 0.3-1.1 0.3l2 3.4c0.2 0.4 0.5 0.8 0.7 1 0.2 0.3 0.4 0.5 0.6 0.7 0.2 0.2 0.4 0.3 0.6 0.4 0.2 0.1 0.4 0.1 0.7 0.2v0.4c-0.1 0.1-0.3 0.1-0.5 0.1 -0.2 0-0.4 0.1-0.7 0.1 -0.3 0-0.7 0-0.9-0.1 -0.3-0.1-0.6-0.2-0.8-0.5 -0.3-0.2-0.5-0.5-0.8-0.9 -0.3-0.4-0.6-0.8-0.9-1.3L98.4 211.4zM98.5 210.7c0.3 0 0.6-0.1 0.9-0.2s0.7-0.3 1-0.5c0.3-0.2 0.6-0.5 0.8-0.8 0.2-0.3 0.3-0.8 0.3-1.3 0-0.5-0.1-0.9-0.3-1.3 -0.2-0.4-0.5-0.7-0.8-0.9 -0.3-0.2-0.6-0.4-1-0.5s-0.7-0.2-0.9-0.2c-0.2 0-0.5 0-0.8 0.1 -0.3 0-0.5 0.1-0.7 0.1v5.2c0.2 0.1 0.4 0.1 0.7 0.1C98 210.7 98.3 210.7 98.5 210.7z"/><path class="st0" d="M122.1 217.4c-0.2 0.1-0.5 0.1-0.8 0.1 -0.2 0-0.5 0-0.8-0.1 -0.3-0.1-0.6-0.2-0.9-0.3 -0.3-0.2-0.6-0.4-0.9-0.8 -0.3-0.3-0.5-0.8-0.8-1.3l-0.5-1.3H112l-1.6 3.7h-0.9l5.5-12.9h0.6l4.3 10.5c0.2 0.4 0.3 0.7 0.4 0.9 0.1 0.3 0.3 0.5 0.5 0.6 0.2 0.2 0.4 0.3 0.5 0.4 0.2 0.1 0.4 0.1 0.7 0.2V217.4zM112.3 212.9h4.8l-2.3-5.7L112.3 212.9z"/><path class="st0" d="M135.8 204.5v0.8h-4.4v12.1h-1.8v-12.1h-1.8c-0.8 0-1.4 0.2-1.8 0.5 -0.4 0.4-0.6 0.9-0.6 1.7h-0.4V206c0-0.2 0-0.4 0.1-0.6 0-0.2 0.1-0.4 0.3-0.5 0.1-0.1 0.3-0.3 0.5-0.4 0.2-0.1 0.5-0.1 0.8-0.1H135.8z"/><path class="st0" d="M142.1 204.5h1.8V215c0 0.6 0.1 1.1 0.2 1.4 0.2 0.4 0.5 0.5 1.1 0.5h0.4v0.4h-1.8c-0.3 0-0.6 0-0.8-0.1 -0.2-0.1-0.4-0.2-0.5-0.4 -0.1-0.2-0.2-0.4-0.3-0.7 -0.1-0.3-0.1-0.7-0.1-1.2V204.5z"/><path class="st0" d="M151.1 210.9c0-1 0.1-1.8 0.4-2.7 0.3-0.8 0.7-1.6 1.2-2.2 0.5-0.6 1.2-1.1 1.9-1.5 0.7-0.4 1.6-0.5 2.5-0.5 0.9 0 1.8 0.2 2.5 0.5 0.7 0.4 1.4 0.8 1.9 1.5 0.5 0.6 0.9 1.3 1.2 2.2 0.3 0.8 0.4 1.7 0.4 2.7 0 0.8-0.1 1.6-0.3 2.3 -0.2 0.7-0.5 1.4-0.9 2 -0.4 0.6-0.9 1.1-1.4 1.5 -0.6 0.4-1.2 0.7-1.9 0.9 0.2 0.5 0.4 1 0.8 1.4 0.3 0.4 0.7 0.8 1.2 1.1s0.9 0.5 1.4 0.7c0.5 0.2 0.9 0.3 1.3 0.3v0.4c-0.7 0-1.4-0.1-2.1-0.2 -0.7-0.1-1.4-0.3-2.1-0.6 -0.7-0.3-1.3-0.7-2-1.2 -0.6-0.5-1.3-1.1-1.9-1.9 -0.7-0.2-1.3-0.5-1.8-0.9 -0.5-0.4-1-0.9-1.4-1.5 -0.4-0.6-0.7-1.2-0.8-1.9C151.2 212.5 151.1 211.7 151.1 210.9zM161.2 210.9c0-0.9-0.1-1.8-0.3-2.5 -0.2-0.7-0.5-1.4-0.8-1.9 -0.4-0.5-0.8-0.9-1.3-1.2 -0.5-0.3-1.1-0.4-1.7-0.4 -0.6 0-1.2 0.1-1.7 0.4 -0.5 0.3-0.9 0.7-1.3 1.2 -0.4 0.5-0.6 1.2-0.8 1.9 -0.2 0.8-0.3 1.6-0.3 2.5 0 0.9 0.1 1.8 0.3 2.5 0.2 0.7 0.5 1.4 0.8 1.9 0.4 0.5 0.8 0.9 1.3 1.2s1.1 0.4 1.7 0.4c0.6 0 1.2-0.1 1.7-0.4s0.9-0.7 1.3-1.2c0.4-0.5 0.6-1.2 0.8-1.9C161.1 212.7 161.2 211.9 161.2 210.9z"/><path class="st0" d="M170.3 206.8c0-0.6-0.1-1.1-0.2-1.4 -0.2-0.4-0.5-0.5-1.1-0.5h-0.4v-0.4h1.8c0.3 0 0.6 0 0.8 0.1 0.2 0.1 0.4 0.2 0.5 0.4 0.1 0.2 0.2 0.4 0.3 0.7 0.1 0.3 0.1 0.7 0.1 1.2v5.6c0 0.7 0.1 1.3 0.2 1.8 0.1 0.5 0.3 1 0.6 1.4s0.6 0.7 1.1 0.9c0.4 0.2 1 0.3 1.6 0.3 0.7 0 1.4-0.1 1.9-0.3 0.5-0.2 0.9-0.5 1.2-0.9 0.3-0.4 0.5-0.9 0.7-1.6s0.2-1.4 0.2-2.2v-7.3h0.8v7.3c0 1-0.1 1.8-0.2 2.5 -0.1 0.7-0.4 1.3-0.8 1.8 -0.4 0.5-0.9 0.8-1.5 1.1 -0.6 0.2-1.5 0.4-2.5 0.4 -0.9 0-1.7-0.1-2.4-0.4 -0.6-0.2-1.1-0.6-1.5-1.1 -0.4-0.5-0.7-1.1-0.8-1.8 -0.2-0.7-0.2-1.6-0.2-2.5V206.8z"/><path class="st0" d="M194.7 204.5c0.3 0 0.6 0 0.8 0.1 0.2 0.1 0.4 0.2 0.5 0.4 0.1 0.1 0.2 0.3 0.3 0.5 0 0.2 0.1 0.4 0.1 0.6v1.5H196c0-0.8-0.2-1.4-0.6-1.7 -0.4-0.4-1-0.5-1.8-0.5h-3.6v5.1h5.3v0.8h-5.3v5.5h3.4c0.9 0 1.6-0.2 2.1-0.5 0.5-0.3 0.9-0.9 1.2-1.7l0.4 0.1 -0.7 1.9c-0.1 0.3-0.3 0.5-0.5 0.7 -0.2 0.2-0.6 0.3-0.9 0.3h-6.7v-10.6c0-0.6-0.1-1.1-0.2-1.4 -0.2-0.4-0.5-0.5-1.1-0.5h-0.4v-0.4H194.7z"/><path class="st1" d="M32.1 192.5h-3.9v-23.7c0-1.3-0.2-2.4-0.5-3.2 -0.4-0.8-1.2-1.2-2.5-1.2h-0.9v-0.9h11.4c0.9 0 2 0.1 3.3 0.3 1.3 0.2 2.4 0.6 3.6 1.2 1.1 0.6 2.1 1.5 2.9 2.7 0.8 1.2 1.2 2.7 1.2 4.7 0 1.3-0.2 2.3-0.5 3.2 -0.4 0.9-0.8 1.6-1.4 2.3 -0.6 0.6-1.2 1.1-1.9 1.5 -0.7 0.4-1.4 0.7-2.1 0.9 -0.7 0.2-1.4 0.3-2 0.4 -0.6 0.1-1.1 0.1-1.6 0.1h-4.8V192.5zM35.4 179.2c0.6 0 1.3-0.1 2.1-0.4 0.8-0.2 1.5-0.6 2.2-1.2 0.7-0.6 1.3-1.3 1.8-2.2 0.5-0.9 0.7-2 0.7-3.3s-0.2-2.4-0.7-3.3c-0.5-0.9-1.1-1.6-1.8-2.2 -0.7-0.6-1.4-0.9-2.2-1.2 -0.8-0.2-1.5-0.4-2.1-0.4 -0.6 0-1.1 0-1.7 0.1 -0.6 0.1-1.1 0.2-1.6 0.3v13.1c0.4 0.1 1 0.2 1.6 0.3C34.3 179.1 34.9 179.2 35.4 179.2z"/><path class="st1" d="M62.7 179.2h-3.1v13.4h-3.9v-23.7c0-1.3-0.2-2.4-0.5-3.2 -0.4-0.8-1.2-1.2-2.5-1.2h-0.9v-0.9h11.4c0.9 0 2 0.1 3.3 0.2 1.3 0.2 2.4 0.5 3.6 1.1 1.1 0.6 2.1 1.4 2.9 2.4 0.8 1 1.2 2.4 1.2 4.2 0 1.3-0.2 2.3-0.7 3.2 -0.4 0.9-1 1.6-1.7 2.2 -0.7 0.6-1.4 1-2.3 1.3 -0.8 0.3-1.6 0.6-2.4 0.7l4.6 7.7c0.6 0.9 1.1 1.7 1.6 2.3s1 1.1 1.4 1.5c0.5 0.4 0.9 0.7 1.4 0.9 0.5 0.2 1 0.3 1.5 0.4v0.9c-0.2 0.1-0.6 0.2-1.1 0.3 -0.5 0.1-1 0.1-1.6 0.1 -0.8 0-1.5-0.1-2.1-0.3s-1.3-0.6-1.9-1.1c-0.6-0.5-1.2-1.2-1.9-2 -0.6-0.8-1.3-1.8-2-3L62.7 179.2zM62.9 177.6c0.6 0 1.3-0.1 2.1-0.4 0.8-0.2 1.5-0.6 2.2-1.1 0.7-0.5 1.3-1.1 1.8-1.9 0.5-0.8 0.7-1.7 0.7-2.8 0-1.1-0.2-2.1-0.7-2.9 -0.5-0.8-1.1-1.5-1.8-2 -0.7-0.5-1.4-0.9-2.2-1.1 -0.8-0.2-1.5-0.4-2.1-0.4 -0.6 0-1.1 0-1.7 0.1 -0.6 0.1-1.1 0.2-1.6 0.3v11.6c0.4 0.1 1 0.2 1.6 0.3C61.8 177.6 62.3 177.6 62.9 177.6z"/><path class="st1" d="M109.3 192.5c-0.5 0.1-1.1 0.2-1.7 0.2 -0.5 0-1.1-0.1-1.7-0.2 -0.7-0.1-1.3-0.4-2-0.8 -0.7-0.4-1.4-1-2-1.7 -0.7-0.8-1.2-1.8-1.7-3l-1.1-2.8H86.8l-3.5 8.3h-2l12.2-28.9h1.3l9.6 23.4c0.3 0.8 0.7 1.5 1 2.1 0.3 0.6 0.6 1 1 1.4 0.4 0.4 0.8 0.6 1.2 0.8 0.4 0.2 1 0.3 1.6 0.4V192.5zM87.5 182.4h10.7l-5.2-12.7L87.5 182.4z"/><path class="st1" d="M116.3 168.9c0-1.3-0.3-2.4-0.8-3.2 -0.6-0.8-1.6-1.2-3.1-1.2h-0.4v-0.9h2.8c1.4 0 2.6 0.2 3.5 0.7 0.9 0.5 1.7 1.1 2.4 1.9l15.3 19.1v-21.7h1.7V193h-0.9l-18.8-23.4v23h-1.7V168.9z"/><path class="st1" d="M173.4 192.5c-0.5 0.1-1.1 0.2-1.7 0.2 -0.5 0-1.1-0.1-1.7-0.2 -0.7-0.1-1.3-0.4-2-0.8 -0.7-0.4-1.4-1-2-1.7 -0.7-0.8-1.2-1.8-1.7-3l-1.1-2.8h-12.2l-3.5 8.3h-2l12.2-28.9h1.3l9.6 23.4c0.3 0.8 0.7 1.5 1 2.1 0.3 0.6 0.6 1 1 1.4 0.4 0.4 0.8 0.6 1.2 0.8 0.4 0.2 1 0.3 1.6 0.4V192.5zM151.6 182.4h10.7l-5.2-12.7L151.6 182.4z"/></svg>
